<svg width="361" height="147" viewBox="0 0 361 147" fill="none" xmlns="http://www.w3.org/2000/svg">
<path d="M47.9541 38C77.9142 38.0001 102.201 62.2879 102.201 92.248C102.201 122.208 77.9139 146.495 47.9541 146.495H8.06836C3.61265 146.495 0.00024924 142.882 0 138.427V46.0684C7.80684e-05 41.6125 3.61255 38.0003 8.06836 38H47.9541ZM17.9824 106.193L17.957 106.178V140.195L20.085 138.094C21.7723 136.428 23.4831 134.123 25.1299 131.998C26.4991 130.231 27.8316 128.578 29.1553 127.313H49.1523C68.5186 127.313 84.2184 111.614 84.2188 92.248C84.2188 72.8815 68.5188 57.1816 49.1523 57.1816H17.9824V106.193Z" fill="url(#paint0_linear_33_11)"/>
<path d="M119.851 21.7778C113.516 15.9339 111.898 0 111.898 0C111.898 0 110.102 15.9537 103.679 21.7778C97.9074 27.0117 83 28 83 28C83 28 97.905 29.183 103.679 34.4815C110 40.2821 111.898 56 111.898 56C111.898 56 113.619 40.3022 119.851 34.4815C125.445 29.2576 140 28 140 28C140 28 125.443 26.9355 119.851 21.7778Z" fill="url(#paint1_linear_33_11)"/>
<path fill-rule="evenodd" clip-rule="evenodd" d="M177.3 113.6L189.8 111.7V110.3C189.8 107.9 189.3 106.067 188.3 104.8C187.3 103.533 185.467 102.9 182.8 102.9C180.933 102.9 179.417 103.267 178.25 104C177.083 104.733 176.167 105.733 175.5 107C174.9 107.867 174.067 108.3 173 108.3H161.8C161.067 108.3 160.5 108.083 160.1 107.65C159.7 107.217 159.533 106.7 159.6 106.1C159.6 104.9 160.05 103.517 160.95 101.95C161.85 100.383 163.233 98.8333 165.1 97.3C166.967 95.7667 169.367 94.5 172.3 93.5C175.233 92.5 178.8 92 183 92C187.267 92 190.933 92.5 194 93.5C197.067 94.5 199.567 95.9 201.5 97.7C203.433 99.5 204.85 101.617 205.75 104.05C206.65 106.483 207.1 109.167 207.1 112.1V143.5C207.1 144.167 206.85 144.75 206.35 145.25C205.85 145.75 204.667 146.05 204 146.05L193 146C192.267 146 191.667 145.75 191.2 145.25C190.733 144.75 190.5 144.167 190.5 143.5V139C189.633 140.267 188.467 141.433 187 142.5C185.533 143.567 183.817 144.417 181.85 145.05C179.883 145.683 177.6 146 175 146C171.4 146 168.183 145.317 165.35 143.95C162.517 142.583 160.267 140.733 158.6 138.4C156.933 136.067 156.1 133.433 156.1 130.5C156.1 125.767 158.033 122.017 161.9 119.25C165.767 116.483 170.9 114.6 177.3 113.6ZM238.4 146H226.8C226.133 146 225.55 145.75 225.05 145.25C224.55 144.75 224.3 144.167 224.3 143.5V107.1H216.7C215.967 107.1 215.367 106.867 214.9 106.4C214.433 105.933 214.2 105.333 214.2 104.6V96.5C214.2 95.7667 214.433 95.1667 214.9 94.7C215.367 94.2333 215.967 94 216.7 94H224.3V90.8C224.3 86.2667 225.183 82.6167 226.95 79.85C228.717 77.0833 231.233 75.0833 234.5 73.85C237.767 72.6167 241.667 72 246.2 72H254C254.733 72 255.333 72.2333 255.8 72.7C256.267 73.1667 256.5 73.7667 256.5 74.5V82.6C256.5 83.3333 256.267 83.9333 255.8 84.4C255.333 84.8667 254.733 85.1 254 85.1H247C244.733 85.1 243.15 85.6333 242.25 86.7C241.35 87.7667 240.9 89.3 240.9 91.3V94H253C253.733 94 254.333 94.2333 254.8 94.7C255.267 95.1667 255.5 95.7667 255.5 96.5V104.6C255.5 105.333 255.267 105.933 254.8 106.4C254.333 106.867 253.733 107.1 253 107.1H240.9V143.5C240.9 144.167 240.667 144.75 240.2 145.25C239.733 145.75 239.133 146 238.4 146ZM298.6 146H289.3C285.033 146 281.35 145.317 278.25 143.95C275.15 142.583 272.767 140.45 271.1 137.55C269.433 134.65 268.6 130.9 268.6 126.3V107.1H260.8C260.067 107.1 259.45 106.867 258.95 106.4C258.45 105.933 258.2 105.333 258.2 104.6V96.5C258.2 95.7667 258.45 95.1667 258.95 94.7C259.45 94.2333 260.067 94 260.8 94H268.6V74.5C268.6 73.7667 268.85 73.1667 269.35 72.7C269.85 72.2333 270.433 72 271.1 72H282.7C283.433 72 284.033 72.2333 284.5 72.7C284.967 73.1667 285.2 73.7667 285.2 74.5V94H297.7C298.433 94 299.05 94.2333 299.55 94.7C300.05 95.1667 300.3 95.7667 300.3 96.5V104.6C300.3 105.333 300.05 105.933 299.55 106.4C299.05 106.867 298.433 107.1 297.7 107.1H285.2V124.9C285.2 127.167 285.633 128.967 286.5 130.3C287.367 131.633 288.833 132.3 290.9 132.3H298.6C299.333 132.3 299.933 132.533 300.4 133C300.867 133.467 301.1 134.067 301.1 134.8V143.5C301.1 144.167 300.867 144.75 300.4 145.25C299.933 145.75 299.333 146 298.6 146ZM128.9 146H116.5C115.767 146 115.167 145.75 114.7 145.25C114.233 144.75 114 144.167 114 143.5V96.5C114 95.8333 114.233 95.25 114.7 94.75C115.167 94.25 115.767 94 116.5 94H128C128.733 94 129.35 94.25 129.85 94.75C130.35 95.25 130.6 95.8333 130.6 96.5V100.5C132.333 98.4333 134.45 96.8333 136.95 95.7C139.45 94.5667 142.267 94 145.4 94H149.8C150.533 94 151.133 94.2333 151.6 94.7C152.067 95.1667 152.3 95.7667 152.3 96.5V106.8C152.3 107.467 152.067 108.05 151.6 108.55C151.133 109.05 150.533 109.3 149.8 109.3H140.1C137.367 109.3 135.25 110.05 133.75 111.55C132.25 113.05 131.5 115.167 131.5 117.9V143.5C131.5 144.167 131.25 144.75 130.75 145.25C130.25 145.75 129.633 146 128.9 146ZM334 146C328.4 146 323.683 145.1 319.85 143.3C316.017 141.5 313.083 138.917 311.05 135.55C309.017 132.183 307.867 128.167 307.6 123.5C307.533 122.167 307.5 120.65 307.5 118.95C307.5 117.25 307.533 115.767 307.6 114.5C307.867 109.767 309.067 105.733 311.2 102.4C313.333 99.0667 316.317 96.5 320.15 94.7C323.983 92.9 328.6 92 334 92C339.467 92 344.117 92.9 347.95 94.7C351.783 96.5 354.767 99.0667 356.9 102.4C359.033 105.733 360.233 109.767 360.5 114.5C360.567 115.767 360.6 117.25 360.6 118.95C360.6 120.65 360.567 122.167 360.5 123.5C360.233 128.167 359.083 132.183 357.05 135.55C355.017 138.917 352.083 141.5 348.25 143.3C344.417 145.1 339.667 146 334 146ZM334 133.8C337 133.8 339.183 132.9 340.55 131.1C341.917 129.3 342.7 126.6 342.9 123C342.967 122 343 120.667 343 119C343 117.333 342.967 116 342.9 115C342.7 111.467 341.917 108.783 340.55 106.95C339.183 105.117 337 104.2 334 104.2C331.133 104.2 328.983 105.117 327.55 106.95C326.117 108.783 325.333 111.467 325.2 115C325.133 116 325.1 117.333 325.1 119C325.1 120.667 325.133 122 325.2 123C325.333 126.6 326.117 129.3 327.55 131.1C328.983 132.9 331.133 133.8 334 133.8ZM190 122.8V121.4L181.5 122.9C178.367 123.433 176.083 124.25 174.65 125.35C173.217 126.45 172.5 127.733 172.5 129.2C172.5 130.333 172.833 131.3 173.5 132.1C174.167 132.9 175.05 133.517 176.15 133.95C177.25 134.383 178.433 134.6 179.7 134.6C181.633 134.6 183.383 134.183 184.95 133.35C186.517 132.517 187.75 131.217 188.65 129.45C189.55 127.683 190 125.467 190 122.8Z" fill="url(#paint2_linear_33_11)"/>
<defs>
<linearGradient id="paint0_linear_33_11" x1="51.1006" y1="38" x2="51.1006" y2="146.495" gradientUnits="userSpaceOnUse">
<stop stop-color="#1AA1F1"/>
<stop offset="1" stop-color="#6B71FE"/>
</linearGradient>
<linearGradient id="paint1_linear_33_11" x1="111.5" y1="0" x2="111.5" y2="56" gradientUnits="userSpaceOnUse">
<stop stop-color="#1AA1F1"/>
<stop offset="1" stop-color="#6B71FE"/>
</linearGradient>
<linearGradient id="paint2_linear_33_11" x1="237.3" y1="34.5" x2="237.3" y2="146" gradientUnits="userSpaceOnUse">
<stop stop-color="#1AA1F1"/>
<stop offset="1" stop-color="#6B71FE"/>
</linearGradient>
</defs>
</svg>
